<svg xmlns="http://www.w3.org/2000/svg" viewBox="0 0 3000 3000" width="3000" height="3000"><g transform="translate(2210.0 738.0) rotate(0.0 359.0 316.0) scale(2.0626493840779556 2.0613647408779716)"><svg width="348.096" height="306.593" viewBox="0 0 348.096 306.593"><path d="m90.707 2.421 250.524 130.6c4.826 2.516 6.755 8.437 4.296 13.222L266.561 299.91c-2.526 4.915-8.454 6.636-13.229 3.849L90.104 208.46c-2.813-1.643-6.268-1.541-9.052.262l-41.833 27.099c-5.964 3.864-13.383-.615-13.292-7.993l.633-51.011c.042-3.35-1.604-6.392-4.308-7.97L5.728 159.2c-4.105-2.397-5.451-7.972-3.017-12.456L78.888 6.418c2.374-4.374 7.661-6.165 11.819-3.997z" fill="#fff"/><path d="M258.179 306.597c-1.933 0-3.853-.521-5.603-1.542L89.348 209.756c-2.315-1.351-5.181-1.264-7.48.226L40.035 237.08c-3.157 2.045-6.96 2.209-10.176.436-3.4-1.876-5.481-5.596-5.431-9.707l.633-51.012c.034-2.802-1.331-5.353-3.563-6.656l-16.524-9.647c-4.788-2.795-6.393-9.285-3.579-14.467L77.57 5.702C80.327.622 86.532-1.45 91.401 1.09l250.524 130.6c5.552 2.895 7.767 9.73 4.937 15.238l-78.967 153.667c-1.41 2.744-3.781 4.72-6.677 5.565a10.836 10.836 0 0 1-3.039.437zM85.815 205.798c1.743 0 3.481.454 5.045 1.367l163.229 95.298c1.955 1.141 4.187 1.43 6.289.817 2.098-.612 3.819-2.052 4.85-4.056l78.967-153.667c2.078-4.045.438-9.072-3.655-11.207L90.014 3.751c-3.426-1.786-7.824-.268-9.808 3.383L4.031 147.459c-2.049 3.773-.947 8.458 2.454 10.445l16.524 9.647c3.164 1.847 5.1 5.404 5.052 9.284l-.633 51.012c-.038 3.048 1.412 5.681 3.88 7.042 2.264 1.25 4.85 1.128 7.096-.327l41.833-27.099a10.253 10.253 0 0 1 5.578-1.665z" fill="#031447"/><g fill="#8487f6"><path d="M113.988 137.641c-9.863 0-18.633-2.043-25.821-6.07-10.266-5.75-18.843-16.426-24.803-30.871-4.462-10.815-5.896-19.825-5.955-20.204a2 2 0 0 1 1.162-2.134c.347-.154 8.606-3.802 19.997-5.864 15.219-2.755 28.708-1.268 39.021 4.302 10.456 5.647 19.311 16.38 25.606 31.038 4.713 10.972 6.34 20.166 6.407 20.552a2 2 0 0 1-1.172 2.175c-.355.155-8.854 3.824-20.518 5.831-4.832.832-9.489 1.245-13.924 1.245zm-52.339-56.22c1.398 6.93 8.256 35.336 28.473 46.661 12.117 6.788 26.822 6.133 37.021 4.389 8.446-1.444 15.298-3.855 18.197-4.971-1.553-7.081-9.047-36.05-29.651-47.179-20.296-10.963-47.511-1.466-54.04 1.1z"/><path d="M121.574 114.398c-5.832 10.916-18.932 15.114-29.192 9.391-10.197-5.688-13.707-19.023-7.906-29.798 5.79-10.756 18.722-14.988 28.95-9.44 10.29 5.583 13.969 18.952 8.148 29.847zm55.359-9.912 34.218 18.415-4.865 9.244c-.419.796-1.225 1.382-1.97 1.617l-19.772 6.239c.331.31.558.818.644 1.121l5.334 18.609c.263.92.132 1.879-.236 2.58l-3.527 6.702c-.421.8-1.229 1.387-1.975 1.619l-17.407 5.421c-.891.277-1.814.148-2.483-.228l-17.216-9.662c-.757-.425-1.303-1.246-1.513-2.007l-2.762-10.021 6.166-1.944 2.4 8.655 15.13 8.456 14.704-4.593 2.21-4.194-4.467-15.959-4.684-2.574c-.669-.368-1.275-1.084-1.533-1.993-.258-.908-.178-1.758.241-2.55s1.071-1.327 1.957-1.608l25.687-7.964 1.098-2.085-28.503-15.403zm63.536 80.867-2.965 5.69-5.848-3.239-11.614 22.263-5.918-3.327 11.605-22.218-26.13-14.472c-1.553-.86-2.174-3.016-1.331-4.62l5.893-11.214c.315-.6 1.08-1.34 1.977-1.622l36.303-11.697c.657-.289 1.755-.213 2.545.212l8.612 4.635-18.979 36.381zm4.033-36.772-1.383-.748-34.206 10.926-3.738 7.122 23.515 12.973zm-3.5 70.092-6.286-3.528 29.018-55.78 6.31 3.41-17.084 32.883 45.725-14.91 1.006-1.948 6.031 3.26-1.643 3.185c-.424.823-1.103 1.376-2.035 1.66l-33.621 10.841 10.091 35.032c.292.964.224 1.86-.204 2.69l-1.658 3.215-6.111-3.43 1.016-1.967-9.595-33.574-13.567 4.733z"/></g></svg></g><g transform="translate(74.0 588.0) rotate(0.0 1218.0 851.0) scale(2.012739085063014 2.0122841553313116)"><svg width="1210.291" height="845.805" viewBox="0 0 1210.291 845.805"><path d="m9.62 380.335 452.537 68.294a31.209 31.209 0 0 1 16.665 8.07L869.88 822.581c2.949 12.381-6.963 24.067-19.659 23.177l-524.244-36.766a61.266 61.266 0 0 1-45.126-24.894L3.254 405.444c-6.24-8.51-3.175-20.599 6.366-25.109zm491.524 36.517L737.518 43.107c6.772-10.767 20.753-14.406 31.914-8.306l428.552 234.22c12.314 9.587 15.884 26.675 8.439 40.391L929.8 818.981c-10.463 19.274-36.196 23.692-52.488 9.012l-2.108-1.899L505.915 461.13c-11.653-11.873-13.627-30.195-4.771-44.278z" fill="#8487f6"/><path d="m484.574 417.046 224.8-406.577c5.488-9.926 18.051-13.42 27.876-7.753l457.135 263.658c9.524 5.493 12.935 17.576 7.69 27.239L914.572 823.224c-7.379 13.593-25.73 16.32-36.743 5.46L488.594 444.839a23.239 23.239 0 0 1-4.02-27.793z" fill="#031447"/><path d="m17.59 376.568 458.842 58.289a8.203 8.203 0 0 1 4.719 2.29l386.268 379.951c5.434 5.345 1.277 14.564-6.326 14.031l-535.235-37.536a44.937 44.937 0 0 1-33.096-18.257L9.941 389.555c-4.259-5.81.503-13.895 7.649-12.987z" fill="#031447"/><path d="M887.956 811.674 497.489 432.936c-1.903-1.845-1.679-6.477.494-10.35l225.042-400.98c2.126-3.788 5.619-5.825 7.808-4.549l447.84 261.119c3.54 2.064 4.268 7.691 1.614 12.562L898.512 808.045c-2.73 5.011-7.46 6.632-10.556 3.629z" fill="#defe48"/><path d="M561.394 796.102 248.178 427.249l.913-5.113 525.196 382.07v10.678z" fill="#8487f6"/><path d="M564.348 785.684 249.091 422.136l172.174 20.505 353.022 361.565z" fill="#fff"/><g fill="#031447"><path d="M774.288 805.706a1.48 1.48 0 0 1-.133-.006l-209.938-18.521a1.496 1.496 0 0 1-1.001-.511L247.959 423.119a1.501 1.501 0 0 1 1.311-2.473l172.174 20.505c.34.041.656.196.896.441l353.02 361.566a1.5 1.5 0 0 1-1.072 2.548zm-209.203-21.463 205.299 18.112-349.822-358.287-167.796-19.983z"/><path d="M737.046 802.42c-.395 0-.789-.155-1.084-.463L389.536 440.028a1.5 1.5 0 0 1 2.168-2.075l346.426 361.93a1.5 1.5 0 0 1-1.084 2.537zm-44.355-3.913c-.4 0-.801-.16-1.096-.476L353.083 435.675a1.5 1.5 0 0 1 2.191-2.048l338.513 362.356a1.5 1.5 0 0 1-1.096 2.524zm-44.735-3.947c-.407 0-.812-.165-1.109-.49L316.379 431.292a1.5 1.5 0 1 1 2.219-2.02L649.065 792.05a1.5 1.5 0 0 1-1.109 2.51zm-45.12-3.98c-.414 0-.826-.17-1.123-.504L279.426 426.878a1.5 1.5 0 0 1 2.244-1.992l322.286 363.197a1.5 1.5 0 0 1-1.12 2.497z"/><path d="M448.516 472.049c-.059 0-.117-.003-.176-.01l-175.182-20.458a1.5 1.5 0 0 1-1.316-1.664 1.508 1.508 0 0 1 1.664-1.316l175.182 20.458a1.5 1.5 0 0 1-.172 2.99zm34.655 35.494c-.057 0-.114-.003-.172-.01L304.016 487.16c-.823-.094-1.414-.837-1.32-1.66s.833-1.417 1.66-1.321l178.983 20.373a1.5 1.5 0 0 1-.168 2.991zm36.406 37.287c-.056 0-.111-.003-.167-.009l-149.494-16.549a1.5 1.5 0 0 1-1.326-1.656 1.506 1.506 0 0 1 1.656-1.326l149.494 16.549a1.5 1.5 0 0 1-.163 2.991zm38.291 39.217a1.48 1.48 0 0 1-.162-.009l-152.867-16.417a1.5 1.5 0 0 1-1.331-1.651 1.492 1.492 0 0 1 1.651-1.331l152.867 16.417a1.5 1.5 0 0 1-.158 2.991zm40.326 41.302c-.052 0-.104-.002-.157-.008l-156.393-16.246c-.823-.086-1.422-.823-1.337-1.647s.812-1.421 1.647-1.337l156.393 16.246a1.5 1.5 0 0 1-.153 2.992zm42.529 43.558c-.05 0-.101-.002-.151-.007l-160.079-16.031a1.5 1.5 0 0 1 .299-2.985l160.079 16.031a1.5 1.5 0 0 1-.148 2.992zm44.917 46.005a1.44 1.44 0 0 1-.146-.007l-200.7-19.302a1.501 1.501 0 0 1 .287-2.987l200.7 19.302a1.501 1.501 0 0 1-.141 2.994zm47.512 48.661c-.046 0-.093-.002-.14-.006L527.34 744.66a1.5 1.5 0 1 1 .276-2.987l205.672 18.907a1.5 1.5 0 0 1-.136 2.993z"/></g><path d="m153.613 507.401 86.608 112.555 163.865 15.382-97.867-115.576z" fill="#fff"/><path d="M404.086 636.838c-.046 0-.093-.002-.141-.006L240.08 621.45a1.501 1.501 0 0 1-1.048-.579l-86.608-112.554a1.5 1.5 0 0 1 1.309-2.41l152.605 12.36c.397.032.766.221 1.023.526l97.868 115.576a1.498 1.498 0 0 1-1.143 2.469zm-163.075-18.315 159.554 14.978-95.089-112.294-148.609-12.037z" fill="#031447"/><path d="M869.88 824.081c-.382 0-.764-.145-1.056-.435l-384.576-381a1.5 1.5 0 1 1 2.111-2.131l384.576 381a1.5 1.5 0 0 1-1.055 2.566z" fill="#8487f6"/></svg></g><g transform="translate(1096.0 658.0) rotate(0.0 667.0 760.0) scale(2.00820443340484 2.006378170605504)"><svg width="664.275" height="757.584" viewBox="0 0 664.275 757.584"><path d="M387.982 756.084 1.5 386.976l206.069-367.33 436.356 266.883z" fill="#fff"/><path d="M387.981 757.584c-.383 0-.755-.146-1.036-.415L.464 388.061a1.501 1.501 0 0 1-.272-1.819l206.069-367.33a1.499 1.499 0 0 1 2.091-.546L644.707 285.25a1.5 1.5 0 0 1 .535 1.998L389.299 756.802a1.501 1.501 0 0 1-1.318.782zM3.378 386.694l384.224 366.953 254.323-466.583-433.81-265.326z" fill="#031447"/><path d="M82.656 465.986a1.5 1.5 0 0 1-1.309-2.231L298.083 75.077a1.5 1.5 0 0 1 2.621 1.461L83.968 465.215a1.501 1.501 0 0 1-1.312.771z" fill="#031447"/><path d="M516.764 521.319c-.32 0-.642-.102-.915-.312L190.682 270.308a1.5 1.5 0 0 1 1.833-2.376l325.167 250.699a1.5 1.5 0 0 1-.918 2.688zm-117.497-205.63c-9.813 4.441-19.419 2.905-25.603-4.364l-32.667 19.768c.288.775.599 1.538.927 2.296 13.255 30.649 45.969 35.338 75.842 11.643z" fill="#031447"/><path d="M428.443 263.479c.418 7.072-.849 14.771-3.594 22.163l18.907 29.029c16.195-27.361 21.755-60.532 13.443-85.258z" fill="#defe48"/><path d="m411.973 238.891 28.373-33.744c-18.56-13.403-46.083-8.11-69.52 15.533-20.129 20.305-32.54 49.387-34.354 76.051l32.336-19.848c2.573-10.047 7.908-19.992 15.385-27.489 9.109-9.133 19.393-12.626 27.78-10.503zM337.9 194.659l-55.279-36.781c-1.657-1.103-1.741-4.252-.191-7.036l21.6-38.783c1.547-2.778 4.162-4.176 5.843-3.122l56.079 35.158c1.795 1.125 1.957 4.374.36 7.254l-22.306 40.216c-1.602 2.886-4.337 4.271-6.106 3.094z" fill="#8487f6"/><path d="M351.47 157.849c-.276 0-.557-.076-.807-.236l-44.798-28.62a1.5 1.5 0 0 1 1.615-2.529l44.798 28.62a1.5 1.5 0 0 1-.808 2.765zm-9.447 17.02a1.5 1.5 0 0 1-.818-.243l-44.581-29.06a1.502 1.502 0 0 1-.438-2.076 1.503 1.503 0 0 1 2.076-.438l44.581 29.06a1.502 1.502 0 0 1-.82 2.757z" fill="#031447"/><path d="m569.807 348.962-70.399-46.841c-2.102-1.398-2.402-5.081-.674-8.228l24.06-43.832c1.723-3.139 4.844-4.602 6.976-3.266l71.392 44.758c2.294 1.438 2.711 5.258.925 8.528l-24.937 45.671c-1.791 3.28-5.081 4.716-7.343 3.21z" fill="#8487f6"/><path d="M564.854 294.174c-.276 0-.557-.076-.807-.236l-37.823-24.165a1.5 1.5 0 0 1 1.615-2.529l37.823 24.165a1.5 1.5 0 0 1-.808 2.765zm8.659 31.59a1.5 1.5 0 0 1-.818-.243l-56.767-37.003a1.502 1.502 0 0 1-.438-2.076 1.504 1.504 0 0 1 2.076-.438l56.767 37.003a1.502 1.502 0 0 1-.82 2.757z" fill="#031447"/><path d="m500.241 476.334-68.182-51.485c-2.035-1.537-2.272-5.349-.533-8.517l24.22-44.123c1.734-3.16 4.811-4.528 6.877-3.055l69.19 49.374c2.224 1.587 2.573 5.545.775 8.838l-25.11 45.987c-1.803 3.303-5.045 4.636-7.237 2.981z" fill="#8487f6"/><path d="M514.874 433.076c-.306 0-.614-.093-.881-.287l-55.266-40.149a1.5 1.5 0 0 1 1.764-2.427l55.266 40.149a1.5 1.5 0 0 1-.883 2.714zm-29.152 5.73c-.311 0-.623-.096-.892-.294l-36.467-27.003a1.5 1.5 0 0 1 1.786-2.411l36.467 27.003a1.499 1.499 0 0 1-.894 2.705zM280.766 307.08a1.49 1.49 0 0 1-.9-.301l-64.73-48.688a1.501 1.501 0 0 1 1.803-2.398l64.73 48.688a1.502 1.502 0 0 1-.903 2.699zm-12.505-32.884c-.31 0-.622-.095-.89-.293l-43.242-31.929a1.499 1.499 0 1 1 1.782-2.413l43.242 31.929a1.499 1.499 0 0 1-.892 2.706zm120.896-53.295a1.5 1.5 0 0 1-1.312-2.227l15.244-27.567-43.517-27.802a1.5 1.5 0 0 1 1.615-2.529l44.703 28.56a1.5 1.5 0 0 1 .505 1.99l-15.926 28.799a1.496 1.496 0 0 1-1.312.776zm66.877 51.431a1.5 1.5 0 0 1-1.314-2.224l19.416-35.275c.2-.364.542-.628.944-.73s.828-.033 1.178.189l40.945 26.159a1.5 1.5 0 0 1-1.615 2.529l-39.596-25.297-18.644 33.872a1.497 1.497 0 0 1-1.314.777zm-6.729 113.109c-.306 0-.614-.093-.881-.287l-53.415-38.805a1.5 1.5 0 0 1 1.764-2.427l53.415 38.805a1.5 1.5 0 0 1-.883 2.714zm-83.776 304.832c-.366 0-.732-.133-1.021-.401L115.376 458.285a1.5 1.5 0 0 1-.289-1.828l84.092-151.022a1.5 1.5 0 0 1 2.621 1.46l-83.52 149.994 248.271 230.786a1.5 1.5 0 0 1-1.022 2.598z" fill="#031447"/><path d="M444.51 522.645c-.305 0-.612-.092-.878-.284-42.867-30.987-72.297-24.238-116.846-14.022l-5.128 1.173c-28.514 6.499-52.924-19.154-65.298-68.622-5.952-23.797-16.89-40.021-31.628-46.917-11.199-5.239-23.916-4.722-36.776 1.498-26.993 13.053-48.005 37.84-48.214 38.089a1.5 1.5 0 0 1-2.297-1.929c.213-.254 21.641-25.531 49.204-38.86 13.702-6.625 27.311-7.149 39.354-1.514 15.584 7.292 27.088 24.204 33.267 48.907 11.928 47.684 34.999 72.515 61.722 66.424l5.123-1.173c43.717-10.024 75.305-17.269 119.274 14.515a1.501 1.501 0 0 1-.879 2.715z" fill="#8487f6"/><path d="M422.193 557.111c-22.209.001-43.265-21.496-65.489-44.185-15.345-15.666-31.213-31.865-48.659-42.543-15.049-9.21-32.439-8.292-49.259-7.405-27.8 1.465-54.062 2.854-63.209-42.526-.884-4.386-2.557-6.79-5.115-7.351-12.026-2.634-40.628 32.345-50.629 46.047a1.5 1.5 0 0 1-2.424-1.769c3.799-5.204 37.565-50.749 53.695-47.209 3.791.831 6.285 4.091 7.414 9.688 8.636 42.839 32.491 41.582 60.109 40.123 17.276-.912 35.139-1.854 50.983 7.842 17.763 10.871 33.763 27.206 49.236 43.002 22.94 23.42 44.596 45.543 66.752 43.097a1.5 1.5 0 1 1 .33 2.981 33.224 33.224 0 0 1-3.735.208zm12.829-40.28c-2.074 3.79-5.72 5.275-8.137 3.321-2.411-1.949-2.686-6.582-.62-10.354 2.065-3.77 5.695-5.265 8.115-3.335 2.426 1.936 2.716 6.579.642 10.368z" fill="#031447"/><path d="M419.203 557.343c-2.083 3.807-5.725 5.257-8.13 3.244-2.398-2.008-2.656-6.703-.582-10.491 2.073-3.787 5.701-5.248 8.108-3.259 2.413 1.995 2.686 6.7.604 10.506z" fill="#8487f6"/><path d="M621.295 242.366c-3.963 7.254-11.332 10.622-16.433 7.533-5.076-3.073-5.985-11.381-2.054-18.568 3.93-7.184 11.237-10.58 16.345-7.574 5.134 3.022 6.104 11.358 2.142 18.609zm41.479 11.081c-.26 0-.521-.067-.761-.208L643.02 242.04a1.5 1.5 0 1 1 1.524-2.584l18.993 11.199a1.5 1.5 0 0 1-.763 2.792zm-6.242 11.452c-.262 0-.527-.068-.768-.212l-18.942-11.306a1.5 1.5 0 0 1 1.537-2.577l18.942 11.306a1.5 1.5 0 0 1-.769 2.789zm-6.246 11.459c-.265 0-.532-.069-.774-.216l-18.892-11.414a1.5 1.5 0 0 1 1.551-2.568l18.892 11.414a1.5 1.5 0 0 1-.777 2.784zM251.836 23.346c-.262 0-.527-.068-.768-.212L216.98 2.788a1.5 1.5 0 0 1 1.537-2.577l34.088 20.346a1.5 1.5 0 0 1-.769 2.789zm64.679 38.605c-.262 0-.527-.068-.768-.212l-56.991-34.017a1.5 1.5 0 0 1 1.537-2.577l56.991 34.017a1.5 1.5 0 0 1-.769 2.789zm-38.657 28.414c-.272 0-.548-.074-.796-.229L205.92 45.535a1.5 1.5 0 0 1 1.593-2.542l71.143 44.602a1.5 1.5 0 0 1-.798 2.77zm-42.47 5.205c-.279 0-.562-.078-.812-.24l-41.548-26.839a1.5 1.5 0 1 1 1.627-2.52l41.548 26.839a1.5 1.5 0 0 1-.815 2.76zm15.676 42.812c-.286 0-.574-.081-.83-.251l-70.117-46.654a1.5 1.5 0 0 1 1.662-2.498l70.117 46.654a1.5 1.5 0 0 1-.832 2.749zm-43.334 77.659c-.307 0-.617-.094-.884-.289l-58.787-42.925a1.5 1.5 0 1 1 1.77-2.423l58.787 42.925a1.5 1.5 0 0 1-.886 2.712zm20.066-60.349a1.49 1.49 0 0 1-.847-.263l-59.758-40.939a1.5 1.5 0 1 1 1.695-2.475l59.758 40.939a1.5 1.5 0 0 1-.848 2.738z" fill="#031447"/><path d="M143.206 167.427c-1.337 2.385-3.474 3.545-4.772 2.592-1.296-.951-1.264-3.649.069-6.026s3.465-3.54 4.764-2.596c1.302.945 1.276 3.645-.061 6.03z" fill="#8487f6"/><path d="M193.007 242.425a1.49 1.49 0 0 1-.901-.302l-58.301-43.9a1.5 1.5 0 0 1 1.805-2.397l58.301 43.9a1.5 1.5 0 0 1-.904 2.699z" fill="#031447"/><path d="M129.018 192.741c-1.338 2.388-3.469 3.533-4.756 2.559-1.285-.973-1.243-3.69.092-6.071 1.335-2.38 3.46-3.529 4.748-2.563 1.291.967 1.254 3.687-.084 6.075z" fill="#8487f6"/><path d="M178.263 268.847c-.321 0-.646-.103-.919-.315l-57.812-44.877a1.5 1.5 0 0 1 1.839-2.37l57.812 44.877a1.5 1.5 0 0 1-.92 2.685z" fill="#031447"/><path d="M114.81 218.091c-1.34 2.391-3.463 3.522-4.74 2.526-1.274-.994-1.222-3.732.115-6.116 1.336-2.384 3.454-3.517 4.732-2.53 1.28.988 1.233 3.728-.107 6.12z" fill="#8487f6"/><g fill="#031447"><path d="m78.25 289.936-9.996-8.422 9.377-16.72 10.053 8.307z"/><path d="M78.25 291.436c-.351 0-.693-.123-.967-.353l-9.996-8.421a1.502 1.502 0 0 1-.342-1.881l9.377-16.72a1.502 1.502 0 0 1 2.263-.423l10.054 8.307a1.5 1.5 0 0 1 .354 1.89l-9.435 16.835a1.5 1.5 0 0 1-1.308.766zm-8.081-10.27 7.66 6.453 7.935-14.16-7.703-6.365z"/><path d="m88.38 298.47-10.13-8.534 9.434-16.835 10.188 8.417z"/><path d="M88.38 299.97c-.351 0-.693-.123-.967-.353l-10.13-8.534a1.5 1.5 0 0 1-.342-1.88l9.435-16.835a1.502 1.502 0 0 1 2.263-.423l10.188 8.417c.56.461.708 1.257.354 1.889l-9.492 16.952a1.502 1.502 0 0 1-1.309.767zm-8.215-10.382 7.793 6.565 7.994-14.275-7.838-6.476z"/><path d="M98.646 307.119 88.38 298.47l9.492-16.952 10.326 8.531z"/><path d="M98.646 308.619c-.351 0-.693-.123-.967-.353l-10.266-8.649a1.5 1.5 0 0 1-.342-1.88l9.492-16.952a1.501 1.501 0 0 1 2.263-.424l10.325 8.531a1.5 1.5 0 0 1 .354 1.889l-9.552 17.07a1.497 1.497 0 0 1-1.307.768zm-8.352-10.498 7.93 6.68 8.054-14.393-7.975-6.589z"/><path d="m109.051 315.885-10.405-8.766 9.552-17.07 10.465 8.646z"/><path d="M109.051 317.385c-.351 0-.693-.123-.967-.353l-10.405-8.767a1.5 1.5 0 0 1-.342-1.879l9.552-17.07a1.502 1.502 0 0 1 2.263-.424l10.466 8.646c.559.461.708 1.256.354 1.888l-9.612 17.19a1.502 1.502 0 0 1-1.309.769zm-8.491-10.615 8.068 6.798 8.115-14.513-8.115-6.705z"/><path d="m119.599 324.771-10.548-8.886 9.612-17.19 10.608 8.765z"/><path d="M119.599 326.271c-.351 0-.693-.123-.967-.353l-10.548-8.886a1.5 1.5 0 0 1-.343-1.879l9.612-17.19a1.498 1.498 0 0 1 2.264-.424l10.607 8.765c.559.461.708 1.255.354 1.888l-9.672 17.311a1.5 1.5 0 0 1-1.307.768zm-8.634-10.735 8.211 6.917 8.176-14.633-8.257-6.822z"/><path d="m130.291 333.78-10.692-9.009 9.672-17.311 10.754 8.885z"/><path d="M130.291 335.28c-.351 0-.693-.123-.967-.353l-10.692-9.009a1.5 1.5 0 0 1-.343-1.878l9.672-17.311a1.5 1.5 0 0 1 2.264-.425l10.755 8.885c.559.461.708 1.255.354 1.888l-9.734 17.435a1.498 1.498 0 0 1-1.309.768zm-8.779-10.858 8.355 7.04 8.239-14.756-8.404-6.943z"/><path d="m141.132 342.913-10.841-9.133 9.734-17.435 10.903 9.008z"/><path d="M141.132 344.413c-.351 0-.693-.123-.967-.353l-10.841-9.133a1.5 1.5 0 0 1-.343-1.878l9.734-17.435a1.5 1.5 0 0 1 2.264-.425l10.902 9.008c.559.461.708 1.255.354 1.887l-9.796 17.56a1.502 1.502 0 0 1-1.307.769zm-8.928-10.983 8.504 7.164 8.301-14.88-8.551-7.065z"/></g><path d="m68.807 306.786-9.938-8.536 9.385-16.736 9.996 8.422z" fill="#fff"/><path d="M68.808 308.286c-.355 0-.703-.126-.978-.362l-9.938-8.537a1.5 1.5 0 0 1-.331-1.872l9.385-16.735a1.503 1.503 0 0 1 2.275-.413l9.996 8.421a1.5 1.5 0 0 1 .342 1.88l-9.442 16.851a1.503 1.503 0 0 1-1.309.767zm-8.03-10.374 7.616 6.542 7.94-14.17-7.66-6.454z" fill="#031447"/><path d="m78.878 315.437-10.071-8.651 9.443-16.85 10.13 8.534z" fill="#fff"/><path d="M78.878 316.937c-.355 0-.703-.126-.978-.362l-10.07-8.651a1.5 1.5 0 0 1-.331-1.871l9.442-16.851a1.5 1.5 0 0 1 2.275-.413l10.13 8.534a1.5 1.5 0 0 1 .342 1.88l-9.502 16.967a1.497 1.497 0 0 1-1.308.767zm-8.161-10.489 7.748 6.656 8.001-14.286-7.794-6.566z" fill="#031447"/><path d="m89.085 324.204-10.207-8.767 9.502-16.967 10.266 8.649z" fill="#fff"/><path d="M89.085 325.704c-.355 0-.703-.126-.978-.362L77.9 316.575a1.5 1.5 0 0 1-.331-1.871l9.502-16.967a1.502 1.502 0 0 1 2.275-.414l10.266 8.649a1.5 1.5 0 0 1 .342 1.879l-9.561 17.085a1.501 1.501 0 0 1-1.308.768zm-8.299-10.605 7.885 6.772 8.061-14.404-7.93-6.681z" fill="#031447"/><path d="m99.43 333.091-10.345-8.887 9.561-17.085 10.405 8.766z" fill="#fff"/><path d="M99.431 334.591c-.355 0-.703-.126-.978-.362l-10.346-8.887a1.5 1.5 0 0 1-.331-1.87l9.561-17.085a1.497 1.497 0 0 1 2.275-.414l10.405 8.767a1.5 1.5 0 0 1 .343 1.879l-9.62 17.206a1.498 1.498 0 0 1-1.309.766zm-8.438-10.725 8.023 6.892 8.12-14.523-8.069-6.798z" fill="#031447"/><path d="m109.917 342.099-10.487-9.008 9.621-17.206 10.548 8.886z" fill="#fff"/><path d="M109.917 343.599c-.355 0-.703-.126-.978-.362l-10.486-9.008a1.5 1.5 0 0 1-.332-1.87l9.62-17.206a1.502 1.502 0 0 1 2.276-.415l10.548 8.886a1.5 1.5 0 0 1 .343 1.878l-9.682 17.328a1.503 1.503 0 0 1-1.309.769zm-8.578-10.846 8.164 7.013 8.183-14.645-8.212-6.918z" fill="#031447"/><path d="m120.548 351.231-10.631-9.132 9.682-17.328 10.692 9.009z" fill="#defe48"/><path d="M120.548 352.731c-.355 0-.703-.126-.978-.362l-10.631-9.132a1.5 1.5 0 0 1-.332-1.869l9.682-17.328a1.5 1.5 0 0 1 2.276-.415l10.692 9.009a1.5 1.5 0 0 1 .343 1.878l-9.743 17.451a1.503 1.503 0 0 1-1.309.768zm-8.724-10.971 8.309 7.137 8.245-14.767-8.356-7.041z" fill="#031447"/><path d="m131.327 360.489-10.779-9.258 9.743-17.451 10.841 9.133z" fill="#defe48"/><path d="M131.326 361.989c-.355 0-.703-.126-.978-.362l-10.778-9.258a1.5 1.5 0 0 1-.332-1.869l9.743-17.451a1.498 1.498 0 0 1 2.276-.415l10.841 9.133a1.5 1.5 0 0 1 .343 1.878l-9.806 17.576a1.5 1.5 0 0 1-1.309.768zm-8.871-11.097 8.456 7.263 8.308-14.892-8.504-7.165z" fill="#031447"/><path d="M59.356 323.652 49.476 315l9.393-16.75 9.938 8.536z" fill="#fff"/><path d="M59.355 325.152c-.36 0-.713-.13-.988-.372l-9.88-8.652a1.5 1.5 0 0 1-.32-1.862l9.394-16.75a1.5 1.5 0 0 1 2.286-.404l9.938 8.537a1.5 1.5 0 0 1 .331 1.871l-9.452 16.866a1.498 1.498 0 0 1-1.309.766zm-7.976-10.479 7.572 6.631 7.947-14.18-7.617-6.543z" fill="#031447"/><path d="m69.368 332.42-10.012-8.768 9.451-16.866 10.071 8.651z" fill="#fff"/><path d="M69.368 333.92c-.36 0-.713-.13-.988-.372l-10.013-8.768a1.5 1.5 0 0 1-.32-1.862l9.452-16.866a1.5 1.5 0 0 1 2.286-.405l10.07 8.651a1.5 1.5 0 0 1 .331 1.871l-9.51 16.983a1.499 1.499 0 0 1-1.308.768zm-8.109-10.596 7.705 6.748 8.006-14.297-7.749-6.657z" fill="#031447"/><path d="m79.516 341.306-10.148-8.886 9.51-16.983 10.207 8.767z" fill="#fff"/><path d="M79.516 342.806c-.36 0-.713-.13-.988-.372l-10.147-8.886a1.499 1.499 0 0 1-.32-1.861l9.51-16.983a1.497 1.497 0 0 1 2.286-.405l10.207 8.767a1.5 1.5 0 0 1 .331 1.87l-9.569 17.102a1.498 1.498 0 0 1-1.31.768zm-8.245-10.714 7.84 6.865 8.066-14.415-7.886-6.773z" fill="#031447"/><path d="m89.801 350.313-10.285-9.007 9.569-17.102 10.345 8.887z" fill="#fff"/><path d="M89.801 351.813c-.36 0-.713-.13-.988-.372l-10.285-9.007a1.499 1.499 0 0 1-.32-1.861l9.569-17.102a1.501 1.501 0 0 1 2.286-.406l10.346 8.887a1.5 1.5 0 0 1 .332 1.87l-9.63 17.222a1.502 1.502 0 0 1-1.31.769zm-8.383-10.835 7.978 6.986 8.127-14.535-8.023-6.893z" fill="#031447"/><path d="m100.227 359.443-10.426-9.13 9.629-17.222 10.487 9.008z" fill="#fff"/><path d="M100.227 360.943c-.36 0-.713-.13-.988-.372l-10.426-9.13a1.499 1.499 0 0 1-.321-1.86l9.63-17.222a1.498 1.498 0 0 1 2.287-.406l10.486 9.008a1.5 1.5 0 0 1 .332 1.869l-9.69 17.344a1.5 1.5 0 0 1-1.31.769zm-8.524-10.958 8.118 7.109 8.188-14.656-8.165-7.014z" fill="#031447"/><path d="m110.796 368.698-10.569-9.255 9.69-17.344 10.631 9.132z" fill="#defe48"/><path d="M110.796 370.198c-.36 0-.713-.13-.988-.372l-10.569-9.256a1.5 1.5 0 0 1-.321-1.86l9.69-17.344a1.503 1.503 0 0 1 2.287-.407l10.631 9.132a1.5 1.5 0 0 1 .332 1.869l-9.752 17.468a1.498 1.498 0 0 1-1.31.77zm-8.668-11.084 8.262 7.235 8.251-14.779-8.31-7.138z" fill="#031447"/><path d="m121.512 378.082-10.716-9.384 9.752-17.467 10.779 9.258z" fill="#defe48"/><path d="M121.512 379.582c-.36 0-.713-.13-.988-.372l-10.716-9.384a1.5 1.5 0 0 1-.321-1.859l9.752-17.468a1.5 1.5 0 0 1 2.287-.407l10.778 9.258a1.5 1.5 0 0 1 .332 1.869l-9.814 17.593a1.497 1.497 0 0 1-1.31.77zm-8.815-11.212 8.408 7.362 8.313-14.904-8.456-7.264z" fill="#031447"/><path d="m49.896 340.534-9.822-8.768L49.476 315l9.88 8.652z" fill="#fff"/><path d="M49.896 342.033c-.365 0-.722-.134-.999-.381l-9.821-8.767a1.503 1.503 0 0 1-.31-1.853l9.401-16.766a1.5 1.5 0 0 1 2.297-.395l9.88 8.652a1.5 1.5 0 0 1 .32 1.862l-9.46 16.881a1.502 1.502 0 0 1-1.308.767zm-7.924-10.584 7.528 6.721 7.952-14.19-7.573-6.632z" fill="#031447"/><path d="m59.849 349.419-9.953-8.885 9.46-16.882 10.012 8.768z" fill="#fff"/><path d="M59.85 350.919c-.365 0-.722-.134-.999-.381l-9.954-8.885a1.503 1.503 0 0 1-.31-1.853l9.46-16.881a1.498 1.498 0 0 1 2.297-.395l10.013 8.768c.533.467.667 1.243.32 1.861l-9.519 16.999a1.501 1.501 0 0 1-1.308.767zm-8.057-10.703 7.661 6.839 8.012-14.307L59.76 326z" fill="#031447"/><path d="m69.937 358.423-10.088-9.004 9.519-16.999 10.148 8.886z" fill="#fff"/><path d="M69.938 359.923c-.365 0-.722-.134-.999-.381l-10.088-9.005a1.502 1.502 0 0 1-.31-1.852l9.519-16.999a1.499 1.499 0 0 1 2.297-.395l10.147 8.886c.533.467.667 1.243.32 1.861l-9.578 17.118a1.498 1.498 0 0 1-1.308.767zm-8.192-10.822 7.795 6.958 8.072-14.425-7.841-6.866z" fill="#031447"/><path d="m80.162 367.551-10.225-9.128 9.579-17.117 10.285 9.007z" fill="#fff"/><path d="M80.162 369.05c-.365 0-.722-.134-.999-.381l-10.225-9.127a1.502 1.502 0 0 1-.31-1.852l9.578-17.118a1.498 1.498 0 0 1 2.297-.396l10.285 9.007c.533.467.667 1.242.321 1.86l-9.639 17.238a1.504 1.504 0 0 1-1.308.769zm-8.328-10.944 7.932 7.08 8.133-14.545-7.978-6.987z" fill="#031447"/><path d="m90.527 376.803-10.365-9.252 9.639-17.238 10.426 9.13z" fill="#fff"/><path d="M90.526 378.303c-.365 0-.722-.134-.999-.381l-10.364-9.252a1.502 1.502 0 0 1-.311-1.851l9.639-17.238a1.502 1.502 0 0 1 2.298-.396l10.426 9.13a1.5 1.5 0 0 1 .321 1.86l-9.7 17.36a1.502 1.502 0 0 1-1.31.768zm-8.467-11.07 8.071 7.205 8.195-14.667-8.119-7.11z" fill="#031447"/><path d="m101.034 386.182-10.507-9.379 9.7-17.36 10.569 9.255z" fill="#defe48"/><path d="M101.034 387.682c-.365 0-.722-.134-.999-.381l-10.508-9.379a1.502 1.502 0 0 1-.311-1.851l9.7-17.36a1.5 1.5 0 0 1 2.298-.397l10.569 9.256a1.5 1.5 0 0 1 .321 1.86l-9.762 17.484a1.502 1.502 0 0 1-1.308.768zm-8.611-11.197 8.214 7.333 8.258-14.79-8.263-7.235z" fill="#031447"/><path d="m111.688 395.692-10.654-9.51 9.762-17.484 10.716 9.384z" fill="#defe48"/><path d="M111.688 397.192c-.365 0-.722-.134-.999-.381l-10.653-9.51a1.502 1.502 0 0 1-.311-1.851l9.762-17.484a1.504 1.504 0 0 1 1.054-.747 1.51 1.51 0 0 1 1.244.35l10.716 9.384a1.5 1.5 0 0 1 .321 1.859l-9.824 17.61a1.5 1.5 0 0 1-1.31.77zm-8.758-11.328 8.36 7.462 8.32-14.915-8.408-7.363z" fill="#031447"/><path d="m40.427 357.43-9.764-8.883 9.411-16.781 9.822 8.768z" fill="#fff"/><path d="M40.427 358.93a1.5 1.5 0 0 1-1.01-.391l-9.764-8.883a1.5 1.5 0 0 1-.299-1.843l9.411-16.781a1.504 1.504 0 0 1 2.308-.386l9.821 8.767c.524.469.653 1.239.31 1.853l-9.469 16.897a1.5 1.5 0 0 1-1.308.767zm-7.872-10.69 7.486 6.811 7.957-14.2-7.529-6.722z" fill="#031447"/><path d="m50.322 366.433-9.895-9.003 9.469-16.896 9.953 8.885z" fill="#fff"/><path d="M50.321 367.933a1.5 1.5 0 0 1-1.01-.391l-9.895-9.002a1.501 1.501 0 0 1-.299-1.843l9.469-16.897a1.502 1.502 0 0 1 2.308-.386l9.954 8.885c.524.468.653 1.238.31 1.852l-9.528 17.014a1.502 1.502 0 0 1-1.309.768zm-8.003-10.81 7.616 6.93 8.019-14.317-7.662-6.839z" fill="#031447"/><path d="m60.35 375.557-10.028-9.124 9.527-17.014 10.088 9.004z" fill="#fff"/><path d="M60.35 377.057a1.5 1.5 0 0 1-1.01-.391l-10.028-9.124a1.5 1.5 0 0 1-.299-1.842l9.528-17.014a1.501 1.501 0 0 1 2.308-.387l10.088 9.005c.524.468.653 1.238.31 1.852l-9.588 17.133a1.497 1.497 0 0 1-1.309.768zm-8.137-10.931 7.75 7.051 8.078-14.436-7.796-6.959z" fill="#031447"/><path d="m70.514 384.805-10.164-9.248 9.587-17.134 10.225 9.128z" fill="#fff"/><path d="M70.515 386.305a1.5 1.5 0 0 1-1.01-.391l-10.165-9.248a1.5 1.5 0 0 1-.299-1.842l9.588-17.133a1.498 1.498 0 0 1 2.308-.387l10.225 9.127c.524.468.653 1.238.311 1.851l-9.647 17.254a1.505 1.505 0 0 1-1.311.769zm-8.275-11.056 7.887 7.175 8.139-14.556-7.933-7.081z" fill="#031447"/><path d="m80.818 394.179-10.304-9.374 9.648-17.254 10.365 9.252z" fill="#fff"/><path d="M80.818 395.679a1.5 1.5 0 0 1-1.01-.391l-10.304-9.375a1.5 1.5 0 0 1-.3-1.841l9.647-17.254a1.503 1.503 0 0 1 2.309-.388l10.364 9.252c.524.468.653 1.237.311 1.851l-9.708 17.376a1.503 1.503 0 0 1-1.309.77zm-8.413-11.182 8.025 7.301 8.2-14.677-8.072-7.206z" fill="#031447"/><path d="m91.264 403.683-10.446-9.504 9.709-17.376 10.507 9.379z" fill="#defe48"/><path d="M91.264 405.183a1.5 1.5 0 0 1-1.01-.391l-10.445-9.503a1.5 1.5 0 0 1-.3-1.841l9.708-17.376a1.502 1.502 0 0 1 2.309-.388l10.508 9.379c.524.468.653 1.237.311 1.851l-9.771 17.5a1.501 1.501 0 0 1-1.31.769zm-8.555-11.312 8.166 7.43 8.264-14.801-8.216-7.333z" fill="#031447"/><path d="m101.854 413.319-10.59-9.636 9.77-17.501 10.654 9.51z" fill="#defe48"/><path d="M101.855 414.819a1.5 1.5 0 0 1-1.01-.391l-10.591-9.636a1.5 1.5 0 0 1-.3-1.841l9.771-17.5a1.502 1.502 0 0 1 2.309-.388l10.653 9.51c.523.468.653 1.236.311 1.85l-9.833 17.626a1.503 1.503 0 0 1-1.31.77zm-8.702-11.444 8.312 7.562 8.326-14.926-8.36-7.463z" fill="#031447"/></svg></g><g transform="translate(504.0 1760.0) rotate(0.0 379.0 190.0) scale(2.0039497373451103 2.009890778303758)"><svg width="378.253" height="189.065" viewBox="0 0 378.253 189.065"><path d="M111.799 57.616C75.575 64.253 29.337 69.827 6.902 69.859c-13.592 28.642.957 94.771 16.16 111.037 0 0 110.88-15.882 127.836-23.341s15.985-38.264 2.42-61.786c-13.565-23.523-41.519-38.153-41.519-38.153z" fill="#fff"/><path d="M23.062 182.396c-.412 0-.811-.17-1.096-.476C6.249 165.103-8.232 98.253 5.546 69.215a1.5 1.5 0 0 1 1.354-.857c21.438-.03 67.396-5.396 104.628-12.218a1.5 1.5 0 0 1 .966.146c1.157.606 28.498 15.104 42.125 38.731 9.509 16.489 12.935 36.61 8.524 50.067-2.184 6.666-6.209 11.453-11.64 13.842-16.949 7.456-123.693 22.803-128.229 23.453-.07.012-.142.017-.212.017zM7.867 71.354c-5.639 12.728-6.448 33.924-2.204 58.408 3.767 21.731 10.938 41.437 17.978 49.534 10.003-1.447 110.824-16.151 126.654-23.115 4.696-2.065 8.06-6.113 9.998-12.03 4.16-12.696.836-31.839-8.273-47.634-12.257-21.253-36.854-35.34-40.471-37.331C74.807 65.89 29.739 71.172 7.867 71.354z" fill="#031447"/><path d="M11.055 158.94a1.5 1.5 0 0 1-.076-2.998c7.917-.405 102.846-15.753 114.984-21.329a1.5 1.5 0 1 1 1.252 2.726c-12.307 5.652-108.107 21.19-116.082 21.598a1.017 1.017 0 0 1-.078.003zM346.623 46.067c3.052-3.509 8.733 3.326 8.182 9.587s-6.029 24.065-9.355 24.065-2.74-29.152 1.173-33.652z" fill="#031447"/><path d="M346.623 74.828c2.739-4.696 6.457-19.488 7.435-22.364s6.652 17.472 8.413 24.711-.978 18.978-8.413 13.304-7.435-15.651-7.435-15.651z" fill="#8487f6"/><path d="M354.84 81.39c3.724-1.869 13.052 5.764 12.396 17.307s-20.613 16.916-20.613 16.916 4.109-32.161 8.217-34.223z" fill="#031447"/><path d="M366.775 173.437c3.725 3.725 9.391-3.717 10.37-10.761.978-7.043.196-24.034-2.152-26.397s-17.217 3.31-18 7.81 4.5 24.065 9.782 29.348z" fill="#8487f6"/><path d="M351.514 113.958c.515-1.673 13.602-18.376 15.755-20.348 2.152-1.972 7.919 27.783 9.485 34.239 1.565 6.457 1.761 11.152 0 11.543s-9.391 7.043-14.283 5.87-12.522-26.217-10.957-31.304z" fill="#8487f6"/><path d="M284.419 26.111c-1.676 8.48-8.803 6.457-19.663 6.457s-17.678 1.957-19.663-6.457c-4.109-17.413 8.803-24.848 19.663-24.848 10.859 0 22.989 8.022 19.663 24.848z" fill="#defe48"/><ellipse cx="264.755" cy="26.111" fill="#031447" rx="19.663" ry="15.652"/><path d="M271.932 2.437c.448-.935 9.931.783 26.365 3.717s29.935 11.152 33.457 12.913 14.018 17.804 2.313 21.13c-11.704 3.326-43.622.978-49.87-1.37s-6.444-13.134-6.639-16.813-5.87-9.013-6.457-11.556c-.587-2.543-.296-5.673.831-8.021z" fill="#8487f6"/><path d="M303.971 52.328c-1.676 8.48-8.803 6.457-19.663 6.457s-17.678 1.957-19.663-6.457c-4.109-17.413 8.803-24.848 19.663-24.848 10.859 0 22.989 8.022 19.663 24.848z" fill="#defe48"/><ellipse cx="284.308" cy="52.328" fill="#031447" rx="19.663" ry="15.652"/><path d="M293.73 29.558c1.206-2.949 12.98 1.052 27.263 4.378s22.304 5.885 25.63 9.301 2.543 21.22 1.761 24.742-2.543 8.609-6.457 8.413c-3.913-.196-42.457-8.804-45.391-10.174-2.935-1.37 1.761-8.609.978-13.755-.932-6.131-3.852-11.183-3.785-13.877.068-2.693-.849-6.949.001-9.028z" fill="#8487f6"/><path d="M337.478 39.901c-.148 0-.299-.022-.447-.069-.047-.014-4.766-1.48-17.604-4.725l-3.006-.763c-10.386-2.641-19.354-4.921-21.963-3.475a1.5 1.5 0 1 1-1.455-2.623c3.645-2.024 11.806.05 24.157 3.191l3.001.761c12.945 3.272 17.574 4.711 17.766 4.771a1.5 1.5 0 0 1-.449 2.932z" fill="#031447"/><path d="M322.166 90.48c-1.676 8.48-8.803 6.457-19.663 6.457s-17.678 1.957-19.663-6.457c-4.109-17.413 8.803-24.848 19.663-24.848s22.99 8.022 19.663 24.848z" fill="#defe48"/><ellipse cx="302.503" cy="90.48" fill="#031447" rx="19.663" ry="15.652"/><path d="M312.312 67.895c4.421-2.355 35.615 6.411 41.354 8.433s6.261 17.739 6 22.435-3.129 15.13-7.304 16.696c-4.174 1.565-41.74-9.261-43.566-9.326s3.375-5.957 5.217-10.5c3.913-9.652 1.304-16.696-1.702-18.716-2.225-1.496-1.798-8.064.001-9.022z" fill="#8487f6"/><path d="M361.12 89.697a1.5 1.5 0 0 1-1.416-1.006c-.785-2.249-3.367-8.531-5.852-10.571-1.353-.886-14.386-4.407-25.213-6.995-13.069-3.124-15.174-2.194-15.371-2.078-.618.551-1.547.48-2.097-.138-.552-.618-.476-1.583.143-2.134.826-.736 2.542-2.267 18.022 1.432 2.479.593 24.284 5.84 26.42 7.594 3.581 2.941 6.463 10.993 6.779 11.902a1.5 1.5 0 0 1-1.415 1.994z" fill="#031447"/><path d="M327.449 129.611c-1.676 8.48-8.803 6.457-19.663 6.457s-17.678 1.957-19.663-6.457c-4.109-17.413 8.803-24.848 19.663-24.848s22.989 8.022 19.663 24.848z" fill="#defe48"/><ellipse cx="307.786" cy="129.611" fill="#031447" rx="19.663" ry="15.652"/><path d="M370.602 165.326c2.113 1.893-8.523 20.045-10.479 22.589-1.957 2.543-14.674.587-14.674-3.13s.196-16.435 1.565-18.587 21.742-2.526 23.588-.872z" fill="#8487f6"/><path d="M359.536 123.154c4.225 1.127 7.043 5.087 4.696 11.609-2.348 6.522-18.522 21.391-23.739 17.348-5.218-4.044 15.13-30 19.043-28.957z" fill="#031447"/><path d="M339.579 154.861c.335-2.351 8.142-7.5 13.5-12.142 7.435-6.441 9.978-11.543 11.935-10.761s8.022 27.391 8.022 29.543-4.696 7.239-11.935 8.022-12.913 1.37-14.087 0c-1.174-1.369-8.217-9.172-7.435-14.662z" fill="#8487f6"/><path d="M352.066 171.758c-4.021 0-5.521-.763-5.836-.957a1.5 1.5 0 1 1 1.568-2.557c.01 0 2.031.93 8.326.284 6.122-.629 11.007-2.439 14.52-5.382 1.748-1.465.729-5.053-.448-9.208-.411-1.45-.837-2.949-1.194-4.516-1.221-5.342-3.493-15.287-6.806-17.685a1.5 1.5 0 1 1 1.76-2.429c3.9 2.823 6.076 11.155 7.97 19.447.341 1.491.756 2.952 1.156 4.365 1.402 4.944 2.727 9.613-.512 12.326-3.979 3.334-9.409 5.375-16.139 6.067a42.759 42.759 0 0 1-4.365.245z" fill="#031447"/><path d="M342.054 155.214v.001-.001zm6.851 12.673.008.009z" fill="#ff296d"/><path d="M317.056 106.769c1.95-2.762 15.023-.465 24.48 3.081 12.522 4.696 20.935 8.609 20.935 10.671 0 4.786-18 32.568-21.913 34.134-3.913 1.565-28.246-6.261-28.246-6.261s-2.728-1.553-2.404-3.222 13.574-4.8 12.818-13.8-8.377-12.94-8.19-14.674 1.518-8.511 2.52-9.929z" fill="#8487f6"/><path d="M362.471 129.218a1.5 1.5 0 0 1-1.5-1.5v-7.658c-2.265-1.505-13.788-6.391-26.283-10.84-5.571-1.984-13.002-3.811-16.744-1.241l-.888-1.21-.811-1.263c1.431-.983 5.79-3.975 19.448.889 6.464 2.301 13.254 4.928 18.629 7.207 9.648 4.09 9.648 4.793 9.648 5.858v8.259a1.499 1.499 0 0 1-1.499 1.499zm-45.415-22.449h.01z" fill="#031447"/><path d="M77.797 56.241c-.779-3.057 77.087-41.87 81-42.652s6.911 5.087 26.738-1.565S252.71-4.02 256.232 1.85s-2.739 11.739 0 14.478 21.913 5.976 24.261 11.793c2.348 5.816-15.504 16.185-12.764 21.272s28.417.588 33.112 13.501-15.261 22.304-14.087 30.13 23.478 5.087 25.435 14.87-19.957 15.261-17.217 24.261c2.739 9 9.783 11.739 8.217 13.304s-52.435 21.13-52.435 21.13-9.389-9.762-22.302-7.023-14.089 13.675-18.002 14.067c-3.913.391-64.322 9.783-69.53 9-5.209-.783-21.459-7.369-25.325-10.565-3.721-3.077-11.971-34.826-6.493-39.13s21.913-17.609 17.217-36.391c-7.435-29.741-43.435-20.349-48.522-40.306z" fill="#8487f6"/><ellipse cx="227.134" cy="47.412" fill="#defe48" rx="27" ry="4.446" transform="matrix(.9701 -.2425 .2425 .9701 -4.7175 56.5037)"/><ellipse cx="212.898" cy="21.419" fill="#defe48" rx="27" ry="3.831" transform="matrix(.9701 -.2425 .2425 .9701 1.1618 52.2748)"/><ellipse cx="233.767" cy="83.93" fill="#defe48" rx="27" ry="3.831" transform="matrix(.9701 -.2425 .2425 .9701 -13.3763 59.2029)"/><ellipse cx="241.593" cy="119.459" fill="#defe48" rx="22.721" ry="3.831" transform="matrix(.9892 -.1467 .1467 .9892 -14.9085 36.7269)"/><g fill="#031447"><path d="M366.768 179.342a1.5 1.5 0 0 1-1.313-2.225c3.015-5.466 2.595-8.077 2.369-9.479-.094-.585-.184-1.138.016-1.714a1.5 1.5 0 0 1 2.883.813c.008.117.036.256.063.424.263 1.634.81 5.034-2.704 11.405a1.498 1.498 0 0 1-1.314.776zm-15.253-63.883a1.498 1.498 0 0 1-.944-2.666c.089-.073 7.983-6.588 9.589-16.807a1.5 1.5 0 1 1 2.963.466c-1.789 11.396-10.305 18.382-10.666 18.674a1.496 1.496 0 0 1-.942.333zm17.969 29.661a1.5 1.5 0 0 1-.918-2.687c1.506-1.164 6.874-4.039 7.481-4.363a1.499 1.499 0 1 1 1.412 2.646c-1.588.848-5.952 3.234-7.06 4.09a1.484 1.484 0 0 1-.915.314zm-29.903 11.241a1.5 1.5 0 0 1-.78-2.782c.072-.044 7.281-4.514 14.427-15.029a1.5 1.5 0 1 1 2.48 1.685c-7.541 11.099-15.035 15.717-15.351 15.908a1.486 1.486 0 0 1-.776.218zm-269.496-7.733a1.5 1.5 0 0 1-1.336-.816c-4.04-7.886-9.358-31.262-10.346-45.476a1.5 1.5 0 1 1 2.993-.208c1.025 14.75 6.516 37.47 10.023 44.316a1.5 1.5 0 0 1-1.334 2.184z"/></g><ellipse cx="59.612" cy="96.785" fill="#defe48" rx="6.979" ry="5.446"/><path d="M59.612 103.731c-4.675 0-8.479-3.116-8.479-6.946s3.804-6.946 8.479-6.946 8.479 3.116 8.479 6.946-3.804 6.946-8.479 6.946zm0-10.892c-2.97 0-5.479 1.807-5.479 3.946s2.509 3.946 5.479 3.946 5.479-1.807 5.479-3.946-2.509-3.946-5.479-3.946z" fill="#031447"/></svg></g><g transform="translate(170.0 1090.0) rotate(0.0 387.0 307.0) scale(2.000268769963923 2.0019758915150785)"><svg width="386.948" height="306.697" viewBox="0 0 386.948 306.697"><path d="M141.616 41.936C131.778 37.268 62.954 11.275 39.826 1.5 6.174 17.981-4.503 66.502 4.609 99.875c19.565 7.387 101.015 30.056 117.391 31.617 12.516 1.192 37.13-81.246 19.616-89.556z" fill="#fff"/><path d="M122.261 133.004a4.15 4.15 0 0 1-.403-.019c-16.669-1.588-98.735-24.517-117.779-31.707a1.501 1.501 0 0 1-.917-1.008C-6.432 65.134 5.746 16.52 39.166.153c.39-.19.843-.204 1.244-.035 11.302 4.777 33.26 13.326 54.494 21.594 21.743 8.466 42.281 16.462 47.354 18.869 4.857 2.305 7.187 9.163 6.922 20.385-.214 9.094-2.17 20.77-5.509 32.877-4.048 14.681-13.046 39.158-21.41 39.161zM5.858 98.74c20.197 7.436 99.964 29.704 116.285 31.259.05.005.101.007.151.007 4.035.001 12.339-14.668 18.485-36.959 7.155-25.954 7.235-46.413.193-49.755h-.001c-4.973-2.36-25.463-10.337-47.155-18.783C72.952 16.384 51.391 7.99 39.878 3.15 8.484 19.039-2.995 65.038 5.858 98.74z" fill="#031447"/><path d="M105.063 96.884c-.144 0-.288-.021-.432-.064-.627-.187-63.071-18.936-101.52-31.709a1.5 1.5 0 0 1 .945-2.847c38.407 12.758 100.812 31.495 101.437 31.683a1.5 1.5 0 0 1-.43 2.937z" fill="#031447"/><path d="M369.629 169.767c1.249-.451 8.136 18.089 10.391 27.716s3.088 25.316.439 29.91c-2.649 4.593-17.663 3.169-21.456-5.318-2.778-6.217-10.073-22.13-11.636-27.418-1.564-5.288 22.262-24.89 22.262-24.89z" fill="#8487f6"/><path d="M320.256 131.938c-5.115 10.539-10.316 6.608-20.267 2.692-9.951-3.917-14.472-12.334-11.009-21.131s14.336-12.754 24.287-8.837c9.95 3.916 13.103 14.677 6.989 27.276z" fill="#defe48"/><ellipse cx="302.239" cy="124.846" fill="#031447" rx="17.118" ry="19.362" transform="matrix(.3662 -.9305 .9305 .3662 75.3725 360.3597)"/><path d="M321.531 111.828c2.481-1.799 44.785 39.112 46.035 44.049s-11.031 15.842-12.559 16.518c-1.527.675-34.186-24.795-35.648-26.421-1.462-1.628-3.004-30.393 2.172-34.146z" fill="#8487f6"/><path d="M316.1 142.497c-5.115 10.539-10.316 6.608-20.267 2.692-9.951-3.917-14.472-12.334-11.009-21.131s14.336-12.754 24.287-8.837c9.949 3.916 13.103 14.678 6.989 27.276z" fill="#defe48"/><ellipse cx="298.082" cy="135.406" fill="#031447" rx="17.118" ry="19.362" transform="matrix(.3662 -.9305 .9305 .3662 62.9129 363.1844)"/><path d="M315.28 117.65c3.231-1.074 21.479 14.566 31.88 22.865s24.034 16.398 24.967 20.971c.934 4.573-5.013 19.148-8.973 22.798s-11.684-.231-24.986-7.569-39.666-26.75-34.501-29.559c15.25-8.296 6.837-27.919 11.613-29.506z" fill="#8487f6"/><path d="M367.566 157.376a1.49 1.49 0 0 1-.913-.311c-.081-.062-8.306-6.377-20.388-15.348-5.712-4.241-11.019-8.425-15.7-12.117-5.196-4.098-9.685-7.638-12.627-9.567a1.5 1.5 0 0 1 1.646-2.509c3.051 2.002 7.37 5.408 12.839 9.72 4.665 3.679 9.953 7.85 15.631 12.065 12.103 8.986 20.345 15.314 20.427 15.377a1.5 1.5 0 0 1-.915 2.69z" fill="#031447"/><path d="M311.505 162.15c-5.115 10.539-10.316 6.608-20.267 2.692-9.951-3.917-14.472-12.334-11.009-21.131s14.336-12.754 24.287-8.837c9.95 3.916 13.104 14.677 6.989 27.276z" fill="#defe48"/><path d="M371.392 191.427c7.036 5.897-13.798 23.94-18.997 28.047s-9.582-2.664-9.582-2.664 16.809-35.248 28.579-25.383z" fill="#031447"/><ellipse cx="293.488" cy="155.058" fill="#031447" rx="17.118" ry="19.362" transform="matrix(.3662 -.9305 .9305 .3662 41.7144 371.3641)"/><path d="M311.207 145.497c5.622-1.156 11.27 5.557 26.438 15.452 15.169 9.895 33.473 23.222 33.095 26.32s-18.573 32.943-21.685 30.877-49.522-28.743-53.326-33.324 11.296-23 11.858-27.278c.562-4.279.886-11.485 3.62-12.047z" fill="#8487f6"/><path d="M370.747 194.612a1.5 1.5 0 0 1-1.464-1.836c.193-.844.576-3.393.032-5.035-.887-1.753-12.794-11.867-20.862-17.678-5.098-3.672-14.043-9.817-20.575-14.304a1179.029 1179.029 0 0 1-7.252-5.003c-3.699-2.598-7.018-3.553-7.051-3.562a1.502 1.502 0 0 1-1.038-1.849 1.503 1.503 0 0 1 1.846-1.04c.154.043 3.822 1.085 7.968 3.997 1.318.927 3.979 2.754 7.227 4.985 6.543 4.496 15.505 10.652 20.63 14.343 5.268 3.794 20.998 16.278 21.956 19.169.907 2.737.135 6.261.043 6.654a1.501 1.501 0 0 1-1.46 1.159z" fill="#031447"/><path d="M301.834 179.282c-5.363 10.944-11.072 6.739-21.931 2.464-10.859-4.274-15.909-13.165-12.308-22.315s15.324-13.102 26.183-8.828 14.467 15.595 8.056 28.679z" fill="#defe48"/><ellipse cx="282.172" cy="171.543" fill="#031447" rx="17.804" ry="21.13" transform="matrix(.3662 -.9305 .9305 .3662 19.2033 371.2809)"/><path d="M355.947 211.781c3.923-4.955 16.321-18.421 18.366-16.495s9.607 27.919 10.841 37.082c1.235 9.163 4.971 24.931-8.403 21.349s-19.366-4.819-20.357-6.891-7.736-20.167-8.305-22.333c-.569-2.165 5.335-9.526 7.858-12.712z" fill="#8487f6"/><path d="M337.488 224.028c2.33 1.915 4.494 3.541 4.494 3.541s34.343-23.802 23.031-32.16-27.525 28.619-27.525 28.619z" fill="#031447"/><path d="M303.579 159.694c4.85-3.736 10.913 1.87 20.491 8.065s35.758 18.743 36.988 22.03c1.229 3.287-12.201 24.589-14.768 26.124-2.567 1.536-7.155 9.619-9.546 9.356-3.224-.355-26.016-11.197-37.595-17.795-13.009-7.413-22.569-13.369-20.65-18.243.718-1.824 8.749-2.141 16.127-10.731 4.982-5.801 4.818-15.622 8.953-18.806zm76.536 102.407c.749 3.705.069 13.713.02 22.385s-.281 19.233-.612 20.785-11.414 3.357-18.477-3.628-13.143-32.871-11.874-36.073c1.268-3.202 1.314-7.613 9.11-8.189 7.796-.575 20.971.455 21.833 4.72z" fill="#8487f6"/><path d="M338.452 227.99c.21-3.206 29.68-25.548 31.003-24.635s10.596 22.225 12.143 30.404c1.547 8.178 5.067 22.74 4.155 24.344s-10.949 8.587-21.276 7.045c-10.327-1.541-16.049-2.672-17.175-4.798s-9.297-25.527-8.85-32.36z" fill="#8487f6"/><path d="M385.447 252.897a1.5 1.5 0 0 1-1.461-1.166c-.023-.1-2.313-10.098-4.613-20.745-2.371-10.976-9.118-25.159-10.703-26.355-1.85-1.07-2.708-1.568-5.815.03a1.5 1.5 0 1 1-1.372-2.668c4.244-2.185 6.211-1.393 8.724.063 2.878 1.667 9.888 18.063 12.098 28.296 2.297 10.629 4.583 20.609 4.605 20.709a1.499 1.499 0 0 1-1.463 1.836zm-114.998-39.305c.409.202 3.277 5.048 3.277 5.048s-5.556 19.814-9.122 23.177c-3.566 3.362-11.641 6.071-18.322-1.885s17.485-29.644 24.167-26.34z" fill="#031447"/><path d="M101.159 110.763c-1.042-11.725 1.214-35.849 15.194-55.697 11.562-16.415 17.642-33.426 46.389-20.99s62.173 30.078 93.141 41.146 58.244 24.747 56.602 29.988c-1.136 3.625-11.462 3.479-10.181 7.347s8.403 8.188 6.683 12.557-7.943 4.889-8.898 7.317c-.955 2.427 5.852 8.573 4.097 13.404-2.006 5.518-18.17-.44-21.889 10.432-3.718 10.872-5.242 33.261-10.654 35.616-5.413 2.355-77.879-14.393-112.555-30.284s-55.862-27.595-57.929-50.836z" fill="#8487f6"/><path d="M226.478 149.575c4.631 5.751 5.607 24.594 11.218 31.329s35.687 27.924 35.556 30.395c-.132 2.471-10.943 5.365-15.982 13.895s-5.864 17.036-7.673 18.427-10.029-.163-28.765-11.322c-18.737-11.159-41.947-19.463-54.381-32.347-11.478-12.507-75.133-51.009-76.016-53.039s8.56-35.459 10.505-41.878c3.381-2.102 101.247 14.373 125.538 44.54z" fill="#8487f6"/><path d="M246.149 190.066c-.313 0-.63-.098-.9-.301-11.148-8.38-14.701-23.058-16.408-30.111-.151-.625-.287-1.189-.413-1.682-1.345-5.26-3.186-12.465-39.342-28.612-35.598-15.897-88.426-20.473-88.955-20.517a1.5 1.5 0 0 1-1.37-1.62c.07-.825.815-1.445 1.62-1.369.535.044 53.87 4.665 89.928 20.767 34.661 15.479 39.087 23.02 41.025 30.609.129.504.269 1.08.423 1.719 1.625 6.714 5.006 20.685 15.295 28.418a1.5 1.5 0 0 1-.903 2.699z" fill="#031447"/><path d="M175.529 208.998a1.5 1.5 0 0 1-1.407-.981c-1.456-3.949-1.32-7.988.395-11.679 2.361-5.085 7.616-9.226 15.195-11.975 14.509-5.262 31.541-5.7 52.07-1.339a1.499 1.499 0 0 1 1.155 1.779 1.505 1.505 0 0 1-1.778 1.156c-19.966-4.24-36.459-3.839-50.424 1.225-6.812 2.47-11.48 6.073-13.498 10.418-1.371 2.951-1.475 6.193-.301 9.377a1.499 1.499 0 0 1-1.407 2.019z" fill="#031447"/><path d="M195.167 185.7c-.333 0-.669-.111-.947-.338-.398-.325-39.94-32.622-51.082-43.183-11.138-10.558-31.055-32.163-31.255-32.38a1.501 1.501 0 0 1 2.207-2.033c.199.216 20.048 21.748 31.112 32.236 11.061 10.485 50.518 42.711 50.914 43.036a1.501 1.501 0 0 1-.949 2.662z" fill="#031447"/><path d="M253.744 252.121c-.449-3.112-.466-8.594.688-10.102s6.803-4.331 12.977-12.315c2.825-3.653 2.571-14.104 4.648-15.24s29.449 20.291 33.713 23.091c4.265 2.8 6.408 22.988-4.563 27.36-10.971 4.373-27.529-2.705-33.988-5.528-6.457-2.822-13.18-5.223-13.475-7.266z" fill="#8487f6"/><ellipse cx="248.485" cy="118.949" fill="#defe48" rx="2.866" ry="31.043" transform="matrix(.3662 -.9305 .9305 .3662 46.7939 306.6031)"/><ellipse cx="254.745" cy="103.044" fill="#defe48" rx="3.028" ry="25.565" transform="matrix(.3662 -.9305 .9305 .3662 65.5601 302.3487)"/><ellipse cx="263.72" cy="89.143" fill="#defe48" rx="1.997" ry="17.087" transform="matrix(.3662 -.9305 .9305 .3662 84.184 301.8909)"/><g fill="#031447"><path d="M282.298 157.766c-.125 0-.252-.016-.378-.049-.131-.034-13.216-3.422-26.538-5.921-25.629-4.807-27.493-1.692-27.56-1.556a1.5 1.5 0 0 1-2.69-1.331c1.232-2.488 5.845-4.744 30.815-.059 13.422 2.518 26.595 5.93 26.726 5.964a1.5 1.5 0 0 1-.375 2.952zm78.837 38.972a1.5 1.5 0 0 1-1.338-2.177c.729-1.445.913-2.646.562-3.673-.764-2.23-4.079-3.959-7.702-5.68-6.011-2.854-23.969-12.932-31.502-17.677-6.47-4.076-11.355-6.923-14.17-7.568a1.5 1.5 0 1 1 .67-2.924c2.87.657 6.822 2.739 15.1 7.954 7.468 4.704 25.248 14.684 31.189 17.505 4.386 2.083 8.109 4.078 9.254 7.417.618 1.806.375 3.824-.723 5.998a1.5 1.5 0 0 1-1.34.825zm6.052 70.096c-.553 0-1.111-.019-1.677-.059-7.788-.55-14.63-2.635-14.917-2.724a1.5 1.5 0 0 1-.992-1.875 1.494 1.494 0 0 1 1.875-.993c.066.021 6.812 2.073 14.245 2.599 7.181.5 13.607-2.963 13.673-2.998a1.5 1.5 0 0 1 1.441 2.631c-.272.151-6.325 3.419-13.648 3.419zm16.061-42.259a1.5 1.5 0 0 1-1.459-1.158l-.176-.771c-5.835-25.821-10.055-26.567-10.517-26.567a1.5 1.5 0 1 1 0-3c2.967 0 7.588 2.997 13.442 28.906l.17.748a1.5 1.5 0 0 1-1.46 1.842zm-17.714-41.86a1.5 1.5 0 0 1-1.115-2.503c.036-.041 3.64-4.12 4.549-9.836a1.5 1.5 0 0 1 2.963.471c-1.053 6.623-5.11 11.183-5.283 11.374a1.502 1.502 0 0 1-1.114.494zM76.496 55.014a1.5 1.5 0 0 1-1.427-1.964c4.8-14.798 24.204-28.064 25.027-28.622a1.5 1.5 0 0 1 1.682 2.484c-.193.131-19.375 13.25-23.855 27.063a1.5 1.5 0 0 1-1.427 1.039z"/></g><ellipse cx="74.6" cy="61.024" fill="#defe48" rx="6.457" ry="5.901" transform="matrix(.3046 -.9525 .9525 .3046 -6.2447 113.4948)"/><path d="M74.301 68.935c-.714 0-1.428-.11-2.124-.333-3.887-1.243-5.962-5.654-4.626-9.833.64-2 1.96-3.657 3.719-4.666 1.801-1.035 3.846-1.269 5.754-.658 1.907.61 3.436 1.985 4.304 3.874.847 1.842.961 3.958.321 5.958s-1.96 3.657-3.719 4.666a7.267 7.267 0 0 1-3.629.992zm.605-12.819c-.728 0-1.461.199-2.143.59-1.107.635-1.943 1.693-2.354 2.978-.832 2.603.371 5.322 2.683 6.061 1.095.35 2.283.207 3.346-.403 1.107-.635 1.943-1.693 2.354-2.978s.344-2.631-.189-3.792c-.513-1.113-1.397-1.919-2.492-2.27a4.003 4.003 0 0 0-1.205-.186z" fill="#031447"/></svg></g><g transform="translate(1890.0 1740.0) rotate(0.0 309.0 369.0) scale(2.046025644845704 2.0427086649044384)"><svg width="302.049" height="361.285" viewBox="0 0 302.049 361.285"><path d="m4.902 161.005 212.652 196.418c4.144 3.827 9.372 2.906 11.663-2.059l70.376-152.572c2.154-4.669.541-11.247-3.587-14.691L155.605 70.973c-2.408-2.009-3.872-5.354-3.841-8.761l.465-50.582c.066-7.119-6.294-12.266-11.389-9.25l-35.629 21.097c-2.365 1.4-5.25 1.076-7.554-.846L83.583 10.889c-3.495-2.915-8.074-1.94-10.24 2.179L2.745 147.282c-2.292 4.357-1.332 10.5 2.157 13.723z" fill="#fff"/><path d="M223.016 361.283c-2.242 0-4.537-.964-6.479-2.758L3.885 162.107c-4.013-3.707-5.097-10.525-2.467-15.523L72.015 12.369c1.28-2.433 3.319-4.037 5.742-4.517 2.353-.467 4.769.202 6.786 1.885l14.075 11.742c1.827 1.523 4.005 1.786 5.828.707l35.629-21.097c2.489-1.474 5.423-1.452 8.051.062 3.443 1.984 5.643 6.102 5.603 10.492l-.465 50.582c-.027 2.963 1.238 5.874 3.302 7.596l140.401 117.127c4.691 3.914 6.442 11.149 3.988 16.471L230.58 355.992c-1.289 2.795-3.446 4.622-6.074 5.145a7.68 7.68 0 0 1-1.49.146zM5.92 159.903l212.652 196.418c1.688 1.558 3.587 2.224 5.348 1.874 1.662-.331 3.06-1.559 3.936-3.459l70.376-152.572c1.883-4.083.454-9.875-3.186-12.911L154.644 72.124c-2.737-2.284-4.415-6.087-4.38-9.927l.465-50.582c.03-3.325-1.579-6.412-4.101-7.865-.976-.562-2.929-1.323-5.023-.08l-35.629 21.097c-2.919 1.729-6.476 1.353-9.279-.985L82.622 12.041c-1.309-1.091-2.831-1.535-4.282-1.246-1.516.3-2.819 1.356-3.67 2.971L4.072 147.98c-1.96 3.727-1.113 9.186 1.848 11.923z" fill="#031447"/><g fill="#8487f6"><path d="M111.27 84.787c-18-15.379-40.771-11.598-51.169 8.392-3.55 6.824-5.224 14.687-5.199 22.73L35.11 122.5l23.269 13.296c3.095 8.78 8.192 16.892 15.068 23.061 18.259 16.384 41.826 12.743 52.314-8.191 10.4-20.76 3.769-50.277-14.491-65.879zm47.044 54.407c.311.267.778.669.999 1.12.708 1.261.489 2.377-.1 3.566l-26.473 53.488-4.668-4.161 23.116-46.579-11.893 2.521-1.46-6.377 18.471-4.001c.738-.147 1.464-.045 2.008.423zm-1.187 64.871L152 214.539l-9.381-8.364 5.127-10.419zm62.544-4.355-28.85-24.895-5.588 11.508 16.654 14.475c.567.493 1.078 1.34 1.292 2.332l4.291 19.954c.225.741.141 1.889-.225 2.656l-5.779 12.105c-.322.674-.935 1.228-1.702 1.372l-15.432 2.906c-.555.192-1.47-.073-2.118-.651l-21.05-18.766 2.773-5.697 20.158 17.907 13.154-2.574 4.633-9.677-3.619-16.957-20.472-17.858 11.042-22.678 33.555 28.852zm-11.823 64.756-5.195-4.632 25.073-52.77 5.19 4.48-14.712 31.059 38.262-8.152.859-1.841 4.97 4.289-1.402 3.012c-.362.778-.932 1.24-1.711 1.386l-28.122 5.879 7.919 37.756c.231 1.044.161 1.963-.208 2.755l-1.431 3.074-5.06-4.511.877-1.879-7.512-36.182-11.39 2.749z"/></g></svg></g><g transform="translate(754.0 512.0) rotate(0.0 256.0 289.0) scale(2.0933503418048605 2.0868008043931128)"><svg width="244.584" height="276.979" viewBox="0 0 244.584 276.979"><path d="M240.335 105.648 79.782 2.081c-2.558-1.65-6.423.337-8.636 4.427L2.949 132.503c-2.093 3.866-1.896 8.5.444 10.361l90.254 71.804c1.753 1.395 2.559 4.111 2.108 7.113l-6.81 45.342c-.976 6.501 3.77 10.501 8.528 7.14l33.934-23.975c2.294-1.621 4.863-1.709 6.728-.225l11.579 9.212c2.925 2.327 7.33.8 9.831-3.428l81.803-138.267c2.666-4.505 2.209-9.854-1.013-11.932z" fill="#fff"/><path d="M93.998 276.972a5.953 5.953 0 0 1-3.154-.892c-2.688-1.656-3.982-5.174-3.381-9.181l6.811-45.342c.37-2.466-.228-4.657-1.56-5.715L2.459 144.039c-2.925-2.327-3.289-7.707-.83-12.25L69.826 5.794C71.382 2.92 73.776.829 76.232.199c1.59-.408 3.1-.193 4.363.621l160.553 103.567c3.891 2.51 4.561 8.771 1.492 13.956L160.837 256.61c-1.644 2.778-4.089 4.649-6.709 5.132-1.95.359-3.847-.101-5.347-1.294l-11.579-9.212c-1.337-1.063-3.179-.959-4.93.277l-33.934 23.975c-1.393.985-2.896 1.484-4.34 1.484zM77.764 3c-.249 0-.512.035-.787.106-1.637.419-3.365 1.997-4.513 4.116L4.268 133.217c-1.907 3.523-1.51 7.226.059 8.474l90.254 71.804c2.169 1.724 3.188 4.984 2.659 8.509l-6.811 45.342c-.414 2.755.366 5.182 1.988 6.182 1.205.743 2.694.568 4.191-.49l33.934-23.975c2.857-2.019 6.125-2.086 8.527-.174l11.579 9.212c1.039.827 2.168.833 2.936.691 1.74-.321 3.487-1.708 4.671-3.709l81.803-138.268c2.22-3.751 1.974-8.288-.537-9.907L78.968 3.341A2.18 2.18 0 0 0 77.764 3z" fill="#031447"/><g fill="#8487f6"><path d="M105.59 71.903c-5.467-3.739-12.818-2.179-19.005 3.186 1.528-8.575-.483-16.516-5.795-20.15-7.543-5.16-18.852.344-25.306 12.186-14.223 26.099 2.395 59.906 2.395 59.906s35.427 2.309 49.683-23.115c6.849-12.215 5.943-26.599-1.972-32.013zm54.616 41.797-27.489-18.889-7.912 14.003 15.67 10.988c.536.376.953 1.15 1.021 2.16l1.366 20.281c.123.733-.159 1.984-.684 2.9l-8.237 14.366c-.456.795-1.206 1.537-2.053 1.881l-16.917 6.894c-.617.338-1.542.285-2.137-.162l-19.18-14.395 3.756-6.662 18.442 13.713 14.445-6.032 6.57-11.487-1.14-17.189-19.148-13.558 15.555-27.594 32.068 21.816zm-25.56 70.955-4.811-3.611 36.166-62.873 5.005 3.441-21.554 37.37 43.99-18.8 1.31-2.244 4.878 3.353-2.149 3.669c-.554.946-1.286 1.602-2.197 1.968l-32.51 13.668 2.247 38.233a5.022 5.022 0 0 1-.7 2.959l-2.092 3.573-4.765-3.577 1.276-2.184-2.091-36.549-12.876 5.778z"/></g></svg></g></svg>